<svg width="37" height="41" viewBox="0 0 37 41" fill="none" xmlns="http://www.w3.org/2000/svg">
<path fill-rule="evenodd" clip-rule="evenodd" d="M35.6339 10.4968L35.3539 9.99683C34.9927 9.39221 34.4833 8.88969 33.8739 8.53683L20.4539 0.796836C19.8463 0.444336 19.1565 0.258076 18.4539 0.256836H17.8739C17.1713 0.258076 16.4815 0.444336 15.8739 0.796836L2.45395 8.55683C1.84789 8.90735 1.34447 9.41077 0.99395 10.0168L0.71395 10.5168C0.36145 11.1245 0.17519 11.8143 0.17395 12.5168V28.0168C0.17519 28.7194 0.36145 29.4092 0.71395 30.0168L0.99395 30.5168C1.35353 31.1158 1.85493 31.6172 2.45395 31.9768L15.8939 39.7168C16.4985 40.0766 17.1903 40.2634 17.8939 40.2568H18.4539C19.1565 40.2556 19.8463 40.0694 20.4539 39.7168L33.8739 31.9568C34.4859 31.6142 34.9913 31.1088 35.3339 30.4968L35.6339 29.9968C35.9821 29.3874 36.1681 28.6988 36.1739 27.9968V12.4968C36.1727 11.7943 35.9865 11.1045 35.6339 10.4968ZM17.8739 4.25684H18.4539L30.1739 11.0168L18.1739 17.9368L6.17395 11.0168L17.8739 4.25684ZM20.1739 35.2568L31.8739 28.4968L32.1739 27.9968V14.4768L20.1739 21.4168V35.2568Z" fill="black"/>
</svg>
