<svg width="499" height="500" viewBox="0 0 499 500" fill="none" xmlns="http://www.w3.org/2000/svg">
<g clip-path="url(#clip0_287_3196)">
<path d="M47.9395 421.206L43.549 403.89C35.7646 400.591 27.8003 397.734 19.6941 395.332L19.1399 403.379L16.8925 394.513C6.83932 391.639 0 390.375 0 390.375C0 390.375 9.23598 425.505 28.6142 452.361L51.1915 456.327L33.6518 458.857C36.0894 461.789 38.709 464.566 41.495 467.17C69.6816 493.334 101.077 505.338 111.617 493.981C122.157 482.625 107.852 452.211 79.6658 426.05C70.9278 417.939 59.951 411.43 48.9628 406.306L47.9395 421.206Z" fill="#F2F2F2"/>
<path d="M89.693 402.398L94.8852 385.306C89.9271 378.458 84.5868 371.895 78.8895 365.649L74.2555 372.251L76.9139 363.5C69.7921 355.846 64.5911 351.229 64.5911 351.229C64.5911 351.229 54.3412 386.076 57.0451 419.082L74.3224 434.148L57.9975 427.246C58.5687 431.017 59.3765 434.749 60.4162 438.419C71.0215 475.386 91.6921 501.89 106.585 497.617C121.478 493.344 124.954 459.913 114.348 422.947C111.061 411.487 105.028 400.241 98.2704 390.176L89.693 402.398Z" fill="#F2F2F2"/>
<path d="M347.857 118.45H345.118V43.4246C345.118 37.722 343.995 32.0752 341.813 26.8067C339.63 21.5382 336.432 16.7511 332.399 12.7188C328.367 8.68642 323.58 5.48778 318.311 3.3055C313.043 1.12321 307.396 0 301.694 0H142.736C131.219 0 120.174 4.57508 112.03 12.7188C103.887 20.8625 99.3115 31.9077 99.3115 43.4246V455.029C99.3115 460.731 100.435 466.378 102.617 471.647C104.799 476.915 107.998 481.702 112.03 485.735C116.063 489.767 120.85 492.966 126.118 495.148C131.387 497.33 137.033 498.453 142.736 498.453H301.694C313.21 498.453 324.255 493.878 332.399 485.734C340.543 477.591 345.118 466.546 345.118 455.029V171.855H347.856L347.857 118.45Z" fill="#E6E6E6"/>
<path d="M303.445 11.293H282.698C283.652 13.6325 284.016 16.1708 283.758 18.6842C283.5 21.1977 282.628 23.6091 281.219 25.7061C279.809 27.8031 277.906 29.5212 275.676 30.7092C273.446 31.8971 270.958 32.5185 268.431 32.5184H177.366C174.84 32.5182 172.352 31.8968 170.122 30.7087C167.893 29.5207 165.989 27.8025 164.58 25.7055C163.171 23.6086 162.299 21.1972 162.041 18.6839C161.783 16.1705 162.147 13.6324 163.102 11.293H143.722C135.121 11.293 126.873 14.7096 120.791 20.7912C114.71 26.8728 111.293 35.1213 111.293 43.722V454.728C111.293 463.329 114.71 471.578 120.791 477.659C126.873 483.741 135.121 487.158 143.722 487.158H303.445C312.046 487.158 320.294 483.741 326.376 477.659C332.458 471.578 335.874 463.329 335.874 454.728V43.7213C335.874 35.1207 332.457 26.8725 326.376 20.791C320.294 14.7095 312.046 11.293 303.445 11.293Z" fill="white"/>
<path d="M203.231 175.017C203.23 172.144 203.986 169.322 205.423 166.834C206.86 164.346 208.927 162.281 211.416 160.846C208.928 159.409 206.106 158.653 203.234 158.652C200.361 158.652 197.539 159.408 195.051 160.844C192.563 162.28 190.497 164.346 189.061 166.834C187.624 169.321 186.868 172.143 186.868 175.016C186.868 177.889 187.624 180.711 189.061 183.199C190.497 185.686 192.563 187.752 195.051 189.188C197.539 190.624 200.361 191.38 203.234 191.38C206.106 191.38 208.928 190.623 211.416 189.186C208.927 187.752 206.86 185.687 205.424 183.199C203.987 180.712 203.23 177.89 203.231 175.017Z" fill="#CCCCCC"/>
<path d="M223.802 175.017C223.801 172.144 224.558 169.322 225.995 166.834C227.431 164.346 229.498 162.281 231.987 160.846C229.5 159.409 226.678 158.653 223.805 158.652C220.932 158.652 218.11 159.408 215.622 160.844C213.135 162.28 211.068 164.346 209.632 166.834C208.196 169.321 207.439 172.143 207.439 175.016C207.439 177.889 208.196 180.711 209.632 183.199C211.068 185.686 213.135 187.752 215.622 189.188C218.11 190.624 220.932 191.38 223.805 191.38C226.678 191.38 229.5 190.623 231.987 189.186C229.499 187.752 227.432 185.687 225.995 183.199C224.558 180.712 223.802 177.89 223.802 175.017Z" fill="#CCCCCC"/>
<path d="M243.907 191.381C252.944 191.381 260.271 184.055 260.271 175.017C260.271 165.98 252.944 158.653 243.907 158.653C234.869 158.653 227.543 165.98 227.543 175.017C227.543 184.055 234.869 191.381 243.907 191.381Z" fill="#FF4D3D"/>
<path d="M271.254 226.127H175.883C174.975 226.126 174.104 225.765 173.462 225.123C172.82 224.481 172.459 223.611 172.458 222.703V127.331C172.459 126.423 172.82 125.553 173.462 124.91C174.104 124.268 174.975 123.907 175.883 123.906H271.254C272.162 123.907 273.033 124.268 273.675 124.91C274.317 125.553 274.678 126.423 274.679 127.331V222.703C274.678 223.611 274.317 224.481 273.675 225.123C273.033 225.765 272.162 226.126 271.254 226.127ZM175.883 125.277C175.338 125.277 174.816 125.494 174.43 125.879C174.045 126.265 173.829 126.787 173.828 127.332V222.703C173.829 223.248 174.045 223.77 174.43 224.156C174.816 224.541 175.338 224.757 175.883 224.758H271.254C271.799 224.757 272.321 224.541 272.707 224.156C273.092 223.77 273.309 223.248 273.309 222.703V127.332C273.309 126.787 273.092 126.265 272.707 125.879C272.321 125.494 271.799 125.277 271.254 125.277H175.883Z" fill="#CCCCCC"/>
<path d="M292.55 299.234H146.278V300.604H292.55V299.234Z" fill="#CCCCCC"/>
<path d="M150.898 290.681C153.449 290.681 155.517 288.613 155.517 286.062C155.517 283.511 153.449 281.442 150.898 281.442C148.346 281.442 146.278 283.511 146.278 286.062C146.278 288.613 148.346 290.681 150.898 290.681Z" fill="#FF4D3D"/>
<path d="M292.55 345.425H146.278V346.795H292.55V345.425Z" fill="#CCCCCC"/>
<path d="M150.898 336.872C153.449 336.872 155.517 334.804 155.517 332.253C155.517 329.702 153.449 327.634 150.898 327.634C148.346 327.634 146.278 329.702 146.278 332.253C146.278 334.804 148.346 336.872 150.898 336.872Z" fill="#FF4D3D"/>
<path d="M289.872 398.025H243.647C242.848 398.024 242.082 397.707 241.518 397.142C240.953 396.577 240.636 395.812 240.635 395.013V378.812C240.636 378.013 240.953 377.248 241.518 376.683C242.082 376.118 242.848 375.801 243.647 375.8H289.872C290.671 375.801 291.436 376.118 292.001 376.683C292.566 377.248 292.883 378.013 292.884 378.812V395.013C292.883 395.812 292.566 396.577 292.001 397.142C291.436 397.707 290.671 398.024 289.872 398.025Z" fill="#FF4D3D"/>
<path d="M165.965 290.681C168.516 290.681 170.584 288.613 170.584 286.062C170.584 283.511 168.516 281.442 165.965 281.442C163.414 281.442 161.346 283.511 161.346 286.062C161.346 288.613 163.414 290.681 165.965 290.681Z" fill="#FF4D3D"/>
<path d="M181.033 290.681C183.585 290.681 185.653 288.613 185.653 286.062C185.653 283.511 183.585 281.442 181.033 281.442C178.482 281.442 176.414 283.511 176.414 286.062C176.414 288.613 178.482 290.681 181.033 290.681Z" fill="#FF4D3D"/>
<path d="M165.965 336.872C168.516 336.872 170.584 334.804 170.584 332.253C170.584 329.702 168.516 327.634 165.965 327.634C163.414 327.634 161.346 329.702 161.346 332.253C161.346 334.804 163.414 336.872 165.965 336.872Z" fill="#FF4D3D"/>
<path d="M181.033 336.872C183.585 336.872 185.653 334.804 185.653 332.253C185.653 329.702 183.585 327.634 181.033 327.634C178.482 327.634 176.414 329.702 176.414 332.253C176.414 334.804 178.482 336.872 181.033 336.872Z" fill="#FF4D3D"/>
<path d="M496.646 500H16.1158C15.0872 500 14.2539 499.635 14.2539 499.185C14.2539 498.735 15.0872 498.369 16.1158 498.369H496.646C497.674 498.369 498.508 498.735 498.508 499.185C498.508 499.635 497.674 500 496.646 500Z" fill="#3F3D56"/>
<path d="M377.924 327.584C378.252 327.735 378.568 327.911 378.868 328.111L408.887 315.299L409.958 307.392L421.953 307.318L421.244 325.455L381.623 335.933C381.54 336.208 381.44 336.478 381.324 336.741C380.751 337.964 379.83 338.989 378.676 339.69C377.522 340.39 376.187 340.734 374.838 340.678C373.489 340.623 372.187 340.169 371.095 339.376C370.003 338.583 369.17 337.484 368.7 336.219C368.23 334.953 368.144 333.577 368.454 332.263C368.764 330.949 369.455 329.756 370.44 328.834C371.426 327.911 372.662 327.3 373.993 327.078C375.325 326.856 376.692 327.032 377.924 327.584Z" fill="#FFB8B8"/>
<path d="M426.315 491.931H418.109L414.206 460.282L426.316 460.283L426.315 491.931Z" fill="#FFB8B8"/>
<path d="M412.249 489.587H428.073V499.55H402.285C402.285 496.908 403.335 494.374 405.203 492.505C407.072 490.637 409.606 489.587 412.249 489.587Z" fill="#2F2E41"/>
<path d="M458.226 489.613L450.06 490.418L443.072 459.304L455.124 458.117L458.226 489.613Z" fill="#FFB8B8"/>
<path d="M443.997 488.658L459.746 487.107L460.722 497.022L435.059 499.55C434.93 498.248 435.06 496.933 435.44 495.681C435.819 494.429 436.442 493.264 437.272 492.253C438.102 491.241 439.123 490.403 440.277 489.787C441.431 489.17 442.695 488.786 443.997 488.658Z" fill="#2F2E41"/>
<path d="M428.598 273.823C437.677 273.823 445.036 266.464 445.036 257.385C445.036 248.307 437.677 240.947 428.598 240.947C419.52 240.947 412.16 248.307 412.16 257.385C412.16 266.464 419.52 273.823 428.598 273.823Z" fill="#FFB8B8"/>
<path d="M416.276 485.531C415.571 485.533 414.888 485.286 414.347 484.833C413.807 484.38 413.443 483.751 413.321 483.057C409.074 459.481 395.192 382.394 394.86 380.259C394.853 380.21 394.849 380.16 394.85 380.11V374.363C394.849 374.153 394.914 373.949 395.037 373.779L396.871 371.21C396.958 371.087 397.072 370.985 397.205 370.912C397.337 370.84 397.485 370.799 397.636 370.792C408.091 370.302 442.333 368.865 443.987 370.932C445.649 373.009 445.062 379.303 444.927 380.543L444.933 380.673L460.317 479.053C460.437 479.837 460.244 480.638 459.779 481.281C459.313 481.924 458.614 482.358 457.831 482.489L448.222 484.072C447.507 484.187 446.774 484.041 446.156 483.662C445.539 483.282 445.079 482.693 444.859 482.002C441.887 472.506 431.923 440.562 428.469 428.201C428.447 428.123 428.398 428.055 428.33 428.011C428.262 427.966 428.18 427.948 428.1 427.959C428.02 427.971 427.946 428.011 427.893 428.073C427.84 428.134 427.812 428.213 427.813 428.294C427.985 440.077 428.402 470.14 428.546 480.523L428.562 481.641C428.568 482.398 428.29 483.13 427.783 483.692C427.276 484.254 426.576 484.606 425.823 484.677L416.557 485.519C416.463 485.527 416.369 485.531 416.276 485.531Z" fill="#2F2E41"/>
<path d="M418.167 280.287C415.298 281.992 413.581 285.126 412.596 288.315C410.773 294.219 409.675 300.323 409.327 306.492L408.286 324.964L395.399 373.935C406.569 383.386 413.012 381.238 428.047 373.508C443.082 365.777 444.8 376.085 444.8 376.085L447.807 334.417L452.103 288.885C451.139 287.724 450.047 286.674 448.849 285.756C444.878 282.669 440.259 280.523 435.339 279.48C430.418 278.437 425.325 278.525 420.443 279.736L418.167 280.287Z" fill="#FF4D3D"/>
<path d="M413.98 337.475C414.327 337.605 414.663 337.763 414.985 337.946L444.666 323.09L445.158 315.041L457.402 314.197L458.058 332.544L418.393 345.661C418.069 347.05 417.33 348.308 416.274 349.267C415.218 350.226 413.895 350.84 412.481 351.029C411.067 351.218 409.629 350.971 408.359 350.323C407.088 349.675 406.045 348.655 405.368 347.399C404.692 346.144 404.413 344.712 404.57 343.294C404.727 341.876 405.311 340.54 406.246 339.462C407.181 338.385 408.422 337.618 409.803 337.263C411.185 336.908 412.642 336.982 413.98 337.475Z" fill="#FFB8B8"/>
<path d="M451.887 289.093C459.19 291.671 460.476 319.595 460.476 319.595C451.885 314.869 441.575 322.602 441.575 322.602C441.575 322.602 439.427 315.299 436.85 305.848C436.072 303.19 435.979 300.378 436.579 297.674C437.18 294.97 438.455 292.463 440.286 290.384C440.286 290.384 444.584 286.514 451.887 289.093Z" fill="#FF4D3D"/>
<path d="M443.338 261.733C441.29 260.094 438.496 263.072 438.496 263.072L436.857 248.326C436.857 248.326 426.616 249.553 420.063 247.917C413.509 246.28 412.485 253.856 412.485 253.856C412.147 250.796 412.078 247.712 412.28 244.64C412.689 240.953 418.015 237.267 427.436 234.809C436.857 232.351 441.772 243.001 441.772 243.001C448.327 246.278 445.386 263.371 443.338 261.733Z" fill="#2F2E41"/>
</g>
<defs>
<clipPath id="clip0_287_3196">
<rect width="498.508" height="500" fill="white"/>
</clipPath>
</defs>
</svg>
